# xmcd
#
# Track frame offsets: 
#        150
#        12626
#        25953
#        39305
#        57771
#        68729
#        81535
#        94568
#        107688
#        129795
#        145614
#        158824
#        177222
#        189022
#        199289
#        217905
#        230901
#        241488
#        255685
#        266325
#
# Disc length: 3766 seconds
#
# Revision: 0
# Processed by: cddbd v1.5.2PL0 Copyright (c) Steve Scherf et al.
# Submitted via: ExactAudioCopyFreeDBPlugin 1.0
#
DISCID=0c0eb414
DTITLE=Various Artist - Billy Connollys Route 66
DYEAR=2011
DGENRE=Blues
TTITLE0=Route 66
TTITLE1=Gimme some lovin
TTITLE2=Shotgun
TTITLE3=I can see for miles
TTITLE4=Ya Ya
TTITLE5=Lets misbehave
TTITLE6=Right place wrong time
TTITLE7=Mannish boy
TTITLE8=On the road again
TTITLE9=Ohh La La
TTITLE10=Midnight rider
TTITLE11=Take the long way home
TTITLE12=Have love will travel
TTITLE13=Suzie-Q
TTITLE14=Got to give it up
TTITLE15=Green Onions
TTITLE16=Aint got no home
TTITLE17=What'd I say
TTITLE18=Shes about a mover
TTITLE19=Jump around
EXTD=
EXTT0=
EXTT1=
EXTT2=
EXTT3=
EXTT4=
EXTT5=
EXTT6=
EXTT7=
EXTT8=
EXTT9=
EXTT10=
EXTT11=
EXTT12=
EXTT13=
EXTT14=
EXTT15=
EXTT16=
EXTT17=
EXTT18=
EXTT19=
PLAYORDER=
